# xmcd
#
# Track frame offsets:
#	150
#	15717
#	32690
#	56628
#
# Disc length: 1043 seconds
#
# Revision: 0
# Processed by: cddbd v1.5.2PL0 Copyright (c) Steve Scherf et al.
# Submitted via: EasyCDDAExtractor 16.0.9.1
#
DISCID=2a041104
DTITLE=Soldier One - Days At M*A*S*H
DYEAR=1997
DGENRE=Hip-Hop
TTITLE0=Days At M*A*S*H (Radio Cut 1)
TTITLE1=Days At M*A*S*H (Radio Cut 2)
TTITLE2=Days At M*A*S*H (Maxi Mix)
TTITLE3=Days At M*A*S*H (Back To The Front)
EXTD=
EXTT0=
EXTT1=
EXTT2=
EXTT3=
PLAYORDER=
